<mxfile host="65bd71144e">
    <diagram id="J0CxmrGqX70ax98WDTyq" name="Page-1">
        <mxGraphModel dx="1154" dy="779" grid="1" gridSize="10" guides="1" tooltips="1" connect="1" arrows="1" fold="1" page="1" pageScale="1" pageWidth="827" pageHeight="1169" background="none" math="0" shadow="0">
            <root>
                <mxCell id="0"/>
                <mxCell id="1" parent="0"/>
                <mxCell id="2" value="Sistem Penilaian Penyedia" style="rounded=0;whiteSpace=wrap;html=1;align=center;" parent="1" vertex="1">
                    <mxGeometry x="350" y="20" width="120" height="30" as="geometry"/>
                </mxCell>
                <mxCell id="3" value="Start" style="ellipse;whiteSpace=wrap;html=1;aspect=fixed;" parent="1" vertex="1">
                    <mxGeometry x="370" y="70" width="80" height="80" as="geometry"/>
                </mxCell>
                <mxCell id="4" value="PPK Login" style="rounded=0;whiteSpace=wrap;html=1;align=center;" parent="1" vertex="1">
                    <mxGeometry x="350" y="180" width="120" height="30" as="geometry"/>
                </mxCell>
                <mxCell id="5" value="Input NIP, Eselon I, Satuan Kerja" style="rounded=0;whiteSpace=wrap;html=1;align=center;" parent="1" vertex="1">
                    <mxGeometry x="350" y="240" width="120" height="30" as="geometry"/>
                </mxCell>
                <mxCell id="6" value="Validasi PPK" style="rounded=0;whiteSpace=wrap;html=1;align=center;" parent="1" vertex="1">
                    <mxGeometry x="350" y="300" width="120" height="30" as="geometry"/>
                </mxCell>
                <mxCell id="7" value="Gagal Validasi" style="rounded=0;whiteSpace=wrap;html=1;align=center;" parent="1" vertex="1">
                    <mxGeometry x="180" y="360" width="120" height="30" as="geometry"/>
                </mxCell>
                <mxCell id="8" value="Berhasil" style="rounded=0;whiteSpace=wrap;html=1;align=center;" parent="1" vertex="1">
                    <mxGeometry x="350" y="360" width="120" height="30" as="geometry"/>
                </mxCell>
                <mxCell id="9" value="Tampilkan Paket" style="rounded=0;whiteSpace=wrap;html=1;align=center;" parent="1" vertex="1">
                    <mxGeometry x="350" y="420" width="120" height="30" as="geometry"/>
                </mxCell>
                <mxCell id="10" value="Admin? " style="rhombus;whiteSpace=wrap;html=1;align=center;" parent="1" vertex="1">
                    <mxGeometry x="350" y="480" width="120" height="30" as="geometry"/>
                </mxCell>
                <mxCell id="11" value="Tampilkan Semua Paket" style="rounded=0;whiteSpace=wrap;html=1;align=center;" parent="1" vertex="1">
                    <mxGeometry x="520" y="540" width="120" height="30" as="geometry"/>
                </mxCell>
                <mxCell id="12" value="Tampilkan Paket Filtered" style="rounded=0;whiteSpace=wrap;html=1;align=center;" parent="1" vertex="1">
                    <mxGeometry x="350" y="540" width="120" height="30" as="geometry"/>
                </mxCell>
                <mxCell id="13" value="Pilih Paket" style="rounded=0;whiteSpace=wrap;html=1;align=center;" parent="1" vertex="1">
                    <mxGeometry x="350" y="600" width="120" height="30" as="geometry"/>
                </mxCell>
                <mxCell id="14" value="Sudah Dinilai?" style="rhombus;whiteSpace=wrap;html=1;align=center;" parent="1" vertex="1">
                    <mxGeometry x="350" y="660" width="120" height="30" as="geometry"/>
                </mxCell>
                <mxCell id="15" value="Lihat Detail" style="rounded=0;whiteSpace=wrap;html=1;align=center;" parent="1" vertex="1">
                    <mxGeometry x="350" y="720" width="120" height="30" as="geometry"/>
                </mxCell>
                <mxCell id="16" value="Kontrak Diputus?" style="rhombus;whiteSpace=wrap;html=1;align=center;" parent="1" vertex="1">
                    <mxGeometry x="350" y="780" width="120" height="30" as="geometry"/>
                </mxCell>
                <mxCell id="17" value="Lanjut Penilaian" style="rounded=0;whiteSpace=wrap;html=1;align=center;" parent="1" vertex="1">
                    <mxGeometry x="350" y="840" width="120" height="30" as="geometry"/>
                </mxCell>
                <mxCell id="18" value="Berikan Penilaian" style="rounded=0;whiteSpace=wrap;html=1;align=center;" parent="1" vertex="1">
                    <mxGeometry x="350" y="900" width="120" height="30" as="geometry"/>
                </mxCell>
                <mxCell id="19" value="Simpan Penilaian" style="rounded=0;whiteSpace=wrap;html=1;align=center;" parent="1" vertex="1">
                    <mxGeometry x="350" y="960" width="120" height="30" as="geometry"/>
                </mxCell>
                <mxCell id="20" value="Update Status Paket" style="rounded=0;whiteSpace=wrap;html=1;align=center;" parent="1" vertex="1">
                    <mxGeometry x="350" y="1020" width="120" height="30" as="geometry"/>
                </mxCell>
                <mxCell id="21" value="" style="endArrow=classic;html=1;entryX=0.5;entryY=0;entryDx=0;entryDy=0;exitX=0.5;exitY=1;exitDx=0;exitDy=0;" parent="1" source="3" target="4" edge="1">
                    <mxGeometry width="50" height="50" relative="1" as="geometry">
                        <mxPoint x="100" y="210" as="sourcePoint"/>
                        <mxPoint x="150" y="160" as="targetPoint"/>
                    </mxGeometry>
                </mxCell>
                <mxCell id="22" value="" style="endArrow=classic;html=1;entryX=0.5;entryY=0;entryDx=0;entryDy=0;exitX=0.5;exitY=1;exitDx=0;exitDy=0;" parent="1" source="4" target="5" edge="1">
                    <mxGeometry width="50" height="50" relative="1" as="geometry">
                        <mxPoint x="100" y="210" as="sourcePoint"/>
                        <mxPoint x="150" y="160" as="targetPoint"/>
                    </mxGeometry>
                </mxCell>
                <mxCell id="23" value="" style="endArrow=classic;html=1;entryX=0.5;entryY=0;entryDx=0;entryDy=0;exitX=0.5;exitY=1;exitDx=0;exitDy=0;" parent="1" source="5" target="6" edge="1">
                    <mxGeometry width="50" height="50" relative="1" as="geometry">
                        <mxPoint x="100" y="210" as="sourcePoint"/>
                        <mxPoint x="150" y="160" as="targetPoint"/>
                    </mxGeometry>
                </mxCell>
                <mxCell id="24" value="Tidak Valid" style="endArrow=classic;html=1;entryX=0;entryY=0.5;entryDx=0;entryDy=0;exitX=0.175;exitY=0.85;exitDx=0;exitDy=0;exitPerimeter=0;" parent="1" source="6" target="7" edge="1">
                    <mxGeometry width="50" height="50" relative="1" as="geometry">
                        <mxPoint x="100" y="210" as="sourcePoint"/>
                        <mxPoint x="150" y="160" as="targetPoint"/>
                    </mxGeometry>
                </mxCell>
                <mxCell id="25" value="Valid" style="endArrow=classic;html=1;entryX=0.5;entryY=0;entryDx=0;entryDy=0;exitX=0.5;exitY=1;exitDx=0;exitDy=0;" parent="1" source="6" target="8" edge="1">
                    <mxGeometry width="50" height="50" relative="1" as="geometry">
                        <mxPoint x="100" y="210" as="sourcePoint"/>
                        <mxPoint x="150" y="160" as="targetPoint"/>
                    </mxGeometry>
                </mxCell>
                <mxCell id="26" value="" style="endArrow=classic;html=1;entryX=0.5;entryY=0;entryDx=0;entryDy=0;exitX=0.5;exitY=1;exitDx=0;exitDy=0;" parent="1" source="8" target="9" edge="1">
                    <mxGeometry width="50" height="50" relative="1" as="geometry">
                        <mxPoint x="100" y="210" as="sourcePoint"/>
                        <mxPoint x="150" y="160" as="targetPoint"/>
                    </mxGeometry>
                </mxCell>
                <mxCell id="27" value="" style="endArrow=classic;html=1;entryX=0.5;entryY=0;entryDx=0;entryDy=0;exitX=0.5;exitY=1;exitDx=0;exitDy=0;" parent="1" source="9" target="10" edge="1">
                    <mxGeometry width="50" height="50" relative="1" as="geometry">
                        <mxPoint x="100" y="210" as="sourcePoint"/>
                        <mxPoint x="150" y="160" as="targetPoint"/>
                    </mxGeometry>
                </mxCell>
                <mxCell id="28" value="Ya" style="endArrow=classic;html=1;entryX=0;entryY=0.5;entryDx=0;entryDy=0;exitX=1;exitY=0.5;exitDx=0;exitDy=0;" parent="1" source="10" target="11" edge="1">
                    <mxGeometry width="50" height="50" relative="1" as="geometry">
                        <mxPoint x="100" y="210" as="sourcePoint"/>
                        <mxPoint x="150" y="160" as="targetPoint"/>
                    </mxGeometry>
                </mxCell>
                <mxCell id="29" value="Tidak" style="endArrow=classic;html=1;entryX=0.5;entryY=0;entryDx=0;entryDy=0;exitX=0.5;exitY=1;exitDx=0;exitDy=0;" parent="1" source="10" target="12" edge="1">
                    <mxGeometry width="50" height="50" relative="1" as="geometry">
                        <mxPoint x="100" y="210" as="sourcePoint"/>
                        <mxPoint x="150" y="160" as="targetPoint"/>
                    </mxGeometry>
                </mxCell>
                <mxCell id="30" value="" style="endArrow=classic;html=1;entryX=0.5;entryY=0;entryDx=0;entryDy=0;exitX=0.5;exitY=1;exitDx=0;exitDy=0;" parent="1" source="11" target="13" edge="1">
                    <mxGeometry width="50" height="50" relative="1" as="geometry">
                        <mxPoint x="100" y="210" as="sourcePoint"/>
                        <mxPoint x="150" y="160" as="targetPoint"/>
                    </mxGeometry>
                </mxCell>
                <mxCell id="31" value="" style="endArrow=classic;html=1;entryX=0.5;entryY=0;entryDx=0;entryDy=0;exitX=0.5;exitY=1;exitDx=0;exitDy=0;" parent="1" source="12" target="13" edge="1">
                    <mxGeometry width="50" height="50" relative="1" as="geometry">
                        <mxPoint x="100" y="210" as="sourcePoint"/>
                        <mxPoint x="150" y="160" as="targetPoint"/>
                    </mxGeometry>
                </mxCell>
                <mxCell id="32" value="" style="endArrow=classic;html=1;entryX=0.5;entryY=0;entryDx=0;entryDy=0;exitX=0.5;exitY=1;exitDx=0;exitDy=0;" parent="1" source="13" target="14" edge="1">
                    <mxGeometry width="50" height="50" relative="1" as="geometry">
                        <mxPoint x="100" y="210" as="sourcePoint"/>
                        <mxPoint x="150" y="160" as="targetPoint"/>
                    </mxGeometry>
                </mxCell>
                <mxCell id="33" value="Ya" style="endArrow=classic;html=1;entryX=0;entryY=0.5;entryDx=0;entryDy=0;exitX=0;exitY=0.5;exitDx=0;exitDy=0;" parent="1" source="14" target="15" edge="1">
                    <mxGeometry width="50" height="50" relative="1" as="geometry">
                        <mxPoint x="100" y="210" as="sourcePoint"/>
                        <mxPoint x="150" y="160" as="targetPoint"/>
                    </mxGeometry>
                </mxCell>
                <mxCell id="34" value="Tidak" style="endArrow=classic;html=1;entryX=0.5;entryY=0;entryDx=0;entryDy=0;exitX=0.5;exitY=1;exitDx=0;exitDy=0;" parent="1" source="14" target="16" edge="1">
                    <mxGeometry width="50" height="50" relative="1" as="geometry">
                        <mxPoint x="100" y="210" as="sourcePoint"/>
                        <mxPoint x="150" y="160" as="targetPoint"/>
                    </mxGeometry>
                </mxCell>
                <mxCell id="35" value="" style="endArrow=classic;html=1;entryX=0.5;entryY=0;entryDx=0;entryDy=0;exitX=0.5;exitY=1;exitDx=0;exitDy=0;" parent="1" source="15" target="16" edge="1">
                    <mxGeometry width="50" height="50" relative="1" as="geometry">
                        <mxPoint x="100" y="210" as="sourcePoint"/>
                        <mxPoint x="150" y="160" as="targetPoint"/>
                    </mxGeometry>
                </mxCell>
                <mxCell id="36" value="Ya" style="endArrow=classic;html=1;entryX=0.5;entryY=0;entryDx=0;entryDy=0;exitX=0.5;exitY=1;exitDx=0;exitDy=0;" parent="1" source="16" target="17" edge="1">
                    <mxGeometry width="50" height="50" relative="1" as="geometry">
                        <mxPoint x="100" y="210" as="sourcePoint"/>
                        <mxPoint x="150" y="160" as="targetPoint"/>
                    </mxGeometry>
                </mxCell>
                <mxCell id="37" value="Tidak" style="endArrow=classic;html=1;entryX=0.5;entryY=0;entryDx=0;entryDy=0;exitX=0.5;exitY=1;exitDx=0;exitDy=0;" parent="1" source="16" target="17" edge="1">
                    <mxGeometry width="50" height="50" relative="1" as="geometry">
                        <mxPoint x="100" y="210" as="sourcePoint"/>
                        <mxPoint x="150" y="160" as="targetPoint"/>
                    </mxGeometry>
                </mxCell>
                <mxCell id="38" value="" style="endArrow=classic;html=1;entryX=0.5;entryY=0;entryDx=0;entryDy=0;exitX=0.5;exitY=1;exitDx=0;exitDy=0;" parent="1" source="17" target="18" edge="1">
                    <mxGeometry width="50" height="50" relative="1" as="geometry">
                        <mxPoint x="100" y="210" as="sourcePoint"/>
                        <mxPoint x="150" y="160" as="targetPoint"/>
                    </mxGeometry>
                </mxCell>
                <mxCell id="39" value="" style="endArrow=classic;html=1;entryX=0.5;entryY=0;entryDx=0;entryDy=0;exitX=0.5;exitY=1;exitDx=0;exitDy=0;" parent="1" source="18" target="19" edge="1">
                    <mxGeometry width="50" height="50" relative="1" as="geometry">
                        <mxPoint x="100" y="210" as="sourcePoint"/>
                        <mxPoint x="150" y="160" as="targetPoint"/>
                    </mxGeometry>
                </mxCell>
                <mxCell id="40" value="" style="endArrow=classic;html=1;entryX=0.5;entryY=0;entryDx=0;entryDy=0;exitX=0.5;exitY=1;exitDx=0;exitDy=0;" parent="1" source="19" target="20" edge="1">
                    <mxGeometry width="50" height="50" relative="1" as="geometry">
                        <mxPoint x="100" y="210" as="sourcePoint"/>
                        <mxPoint x="150" y="160" as="targetPoint"/>
                    </mxGeometry>
                </mxCell>
                <mxCell id="41" value="Selesai" style="rounded=0;whiteSpace=wrap;html=1;align=center;" parent="1" vertex="1">
                    <mxGeometry x="350" y="1080" width="120" height="30" as="geometry"/>
                </mxCell>
                <mxCell id="42" value="" style="endArrow=classic;html=1;entryX=0.5;entryY=0;entryDx=0;entryDy=0;exitX=0.5;exitY=1;exitDx=0;exitDy=0;" parent="1" source="20" target="41" edge="1">
                    <mxGeometry width="50" height="50" relative="1" as="geometry">
                        <mxPoint x="100" y="1180" as="sourcePoint"/>
                        <mxPoint x="150" y="1130" as="targetPoint"/>
                    </mxGeometry>
                </mxCell>
            </root>
        </mxGraphModel>
    </diagram>
</mxfile>